D:\school\WTK\thesis\model\3dpredictsim\Results\batch_windlass\Pog_s1_tmt_aCst_d05_k500_WL30_ig24_act_TTC_GRF.mot
nRows=17
nColumns=19

name D:\school\WTK\thesis\model\3dpredictsim\Results\batch_windlass\Pog_s1_tmt_aCst_d05_k500_WL30_ig24_act_TTC_GRF.mot
datacolumns 19
datarows 17
range 0.5865552901 0.7742529829
endheader
time 	ground_force_vx	ground_force_vy	ground_force_vz	ground_force_px	ground_force_py	ground_force_pz	1_ground_force_vx	1_ground_force_vy	1_ground_force_vz	1_ground_force_px	1_ground_force_py	1_ground_force_pz	ground_torque_x	ground_torque_y	ground_torque_z	1_ground_torque_x	1_ground_torque_y	1_ground_torque_z
        0.5865552901	       94.9869245045	      425.5122111689	       -0.9773927758	        0.3813561459	        0.0000000000	        0.0330464625	      -38.6509940328	       25.2854695832	       -5.9161197886	        0.8808590633	        0.0000000000	       -0.0626524754	        0.0000000000	        0.0000000000	        0.0000000000	        0.0000000000	        0.0000000000	        0.0000000000	
        0.5982863959	       67.1580591322	      331.4957853594	        3.4249786203	        0.3893476211	        0.0000000000	        0.0292737342	      -79.8511945523	       61.7215810297	      -15.5096860713	        0.8960737992	        0.0000000000	       -0.0607055622	        0.0000000000	        0.0000000000	        0.0000000000	        0.0000000000	        0.0000000000	        0.0000000000	
        0.6100175017	       46.0986146386	      246.7403433819	       15.6972177564	        0.3990046059	        0.0000000000	        0.0246389203	     -147.5743118818	      150.6146390762	      -42.1872718733	        0.9078357834	        0.0000000000	       -0.0598749674	        0.0000000000	        0.0000000000	        0.0000000000	        0.0000000000	        0.0000000000	        0.0000000000	
        0.6217486075	       36.8707899732	      207.7699410910	       19.1890152358	        0.4020501304	        0.0000000000	        0.0229627403	      -74.3340758699	      396.2630948455	       -8.0148224412	        0.9254184950	        0.0000000000	       -0.0608153585	        0.0000000000	        0.0000000000	        0.0000000000	        0.0000000000	        0.0000000000	        0.0000000000	
        0.6334797133	       31.9366297373	      170.3542907740	       16.4901760720	        0.4021163459	        0.0000000000	        0.0228371051	      -86.4328430738	      675.6712393323	       16.6201004742	        0.9347852285	        0.0000000000	       -0.0619816809	        0.0000000000	        0.0000000000	        0.0000000000	        0.0000000000	        0.0000000000	        0.0000000000	
        0.6452108191	       22.9850203200	      120.8337507021	       15.4831405841	        0.4022002951	        0.0000000000	        0.0229131327	     -117.1727764779	      842.8250468476	       24.5467974229	        0.9428411448	        0.0000000000	       -0.0621173165	        0.0000000000	        0.0000000000	        0.0000000000	        0.0000000000	        0.0000000000	        0.0000000000	
        0.6569419249	        0.8844039607	       66.5355058440	       13.7832978585	        0.4007256009	        0.0000000000	        0.0232748012	     -148.5925797588	      920.8663318465	       25.3452685242	        0.9537252453	        0.0000000000	       -0.0611571820	        0.0000000000	        0.0000000000	        0.0000000000	        0.0000000000	        0.0000000000	        0.0000000000	
        0.6686730307	       -8.1815422469	       11.5497986389	        2.1917844757	        0.3964112778	        0.0000000000	        0.0223999982	     -145.1175549256	      917.6400655746	       23.7253571688	        0.9623844779	        0.0000000000	       -0.0599911177	        0.0000000000	        0.0000000000	        0.0000000000	        0.0000000000	        0.0000000000	        0.0000000000	
        0.6804041365	       -6.9797635384	        5.8886640759	       -0.4872405372	        0.0000000000	        0.0000000000	        0.0000000000	     -127.5935538143	      859.4819851149	       22.1314179444	        0.9675693726	        0.0000000000	       -0.0591241649	        0.0000000000	        0.0000000000	        0.0000000000	        0.0000000000	        0.0000000000	        0.0000000000	
        0.6921352423	       -7.3328712629	        5.2785490849	       -0.5900647225	        0.0000000000	        0.0000000000	        0.0000000000	     -110.9359468688	      799.3505319422	       20.2724774292	        0.9714386950	        0.0000000000	       -0.0585645358	        0.0000000000	        0.0000000000	        0.0000000000	        0.0000000000	        0.0000000000	        0.0000000000	
        0.7038663481	       -6.0741257620	        3.8655449130	       -0.5108149067	        0.0000000000	        0.0000000000	        0.0000000000	      -97.0618304222	      754.9829950168	       20.6675457980	        0.9749538778	        0.0000000000	       -0.0581543621	        0.0000000000	        0.0000000000	        0.0000000000	        0.0000000000	        0.0000000000	        0.0000000000	
        0.7155974539	       -4.5338308862	        2.6283388309	       -0.3952494756	        0.0000000000	        0.0000000000	        0.0000000000	      -83.9905684565	      719.1094688754	       20.9164728871	        0.9782773190	        0.0000000000	       -0.0578514290	        0.0000000000	        0.0000000000	        0.0000000000	        0.0000000000	        0.0000000000	        0.0000000000	
        0.7273285597	       -3.1662257936	        1.7007126337	       -0.2701316341	        0.0000000000	        0.0000000000	        0.0000000000	      -72.0220382868	      689.7404936923	       20.6473556370	        0.9819180383	        0.0000000000	       -0.0575924446	        0.0000000000	        0.0000000000	        0.0000000000	        0.0000000000	        0.0000000000	        0.0000000000	
        0.7390596655	       -2.5288586877	        1.2823103136	       -0.2101896849	        0.0000000000	        0.0000000000	        0.0000000000	      -61.4535454204	      666.5920573894	       20.8171009210	        0.9865377307	        0.0000000000	       -0.0572484178	        0.0000000000	        0.0000000000	        0.0000000000	        0.0000000000	        0.0000000000	        0.0000000000	
        0.7507907713	       -1.8312837460	        0.8889443395	       -0.1469186813	        0.0000000000	        0.0000000000	        0.0000000000	      -53.3589010571	      647.7952580809	       21.0290860273	        0.9919046404	        0.0000000000	       -0.0567915794	        0.0000000000	        0.0000000000	        0.0000000000	        0.0000000000	        0.0000000000	        0.0000000000	
        0.7625218771	       -1.2750049107	        0.5979496355	       -0.0984067846	        0.0000000000	        0.0000000000	        0.0000000000	      -46.5870918754	      632.6852528974	       21.2432063359	        0.9977690710	        0.0000000000	       -0.0562318409	        0.0000000000	        0.0000000000	        0.0000000000	        0.0000000000	        0.0000000000	        0.0000000000	
        0.7742529829	       -0.9159998531	        0.4181772594	       -0.0676053920	        0.0000000000	        0.0000000000	        0.0000000000	      -40.8060342986	      619.3111468027	       21.2168218036	        1.0039175493	        0.0000000000	       -0.0555874700	        0.0000000000	        0.0000000000	        0.0000000000	        0.0000000000	        0.0000000000	        0.0000000000	
